<svg xmlns="http://www.w3.org/2000/svg" viewBox="0 0 125.56 146.43"><defs><style>.cls-1,.cls-2{fill:#a7a9ac;}.cls-2{font-size:14px;font-family:MicrosoftSansSerif, Microsoft Sans Serif;letter-spacing:-0.05em;}.cls-3{letter-spacing:-0.06em;}.cls-4{letter-spacing:-0.06em;}.cls-5{letter-spacing:-0.06em;}.cls-6{letter-spacing:-0.06em;}.cls-7{letter-spacing:-0.07em;}.cls-8{letter-spacing:-0.05em;}.cls-9{letter-spacing:-0.05em;}.cls-10{letter-spacing:-0.05em;}.cls-11{fill:none;stroke:#a7a9ac;stroke-miterlimit:10;}</style></defs><g id="frame"><rect class="cls-1" x="26.16" y="28.43" width="6.06" height="26.73"/><rect class="cls-1" x="30.14" y="28.43" width="24.63" height="6.06"/><polygon class="cls-1" points="61.2 36.86 56.79 40.66 50.1 32.09 54.77 28.43 61.2 36.86"/><polygon class="cls-1" points="70.97 28.43 75.63 31.93 69.12 40.63 64.32 36.78 70.97 28.43"/><rect class="cls-1" x="70.97" y="28.43" width="28.52" height="6.06"/><rect class="cls-1" x="93.65" y="33.23" width="5.84" height="23.91"/><polygon class="cls-1" points="87.14 58.81 91.27 63.04 99.49 57.14 96.16 52.3 87.14 58.81"/><polygon class="cls-1" points="95.65 77.81 99.56 72.96 91.41 66.58 87.04 70.76 95.65 77.81"/><rect class="cls-1" x="73.18" y="95.76" width="26.31" height="5.94"/><polygon class="cls-1" points="93.65 98.35 99.49 98.35 99.56 72.96 93.72 72.96 93.65 98.35"/><rect class="cls-1" x="26.16" y="95.76" width="26.24" height="5.94"/><rect class="cls-1" x="26.16" y="75.6" width="6.06" height="21.16"/></g><g id="blue-pieces"><path class="cls-1" d="M71.54,35.12l-3,3.61c2.44.91,4.26,4.15,4.26,6.77a5.56,5.56,0,0,1-11.12,0c0-2.6,1.77-5.81,4.18-6.74l-3-3.41a11.22,11.22,0,1,0,8.63-.23Z" transform="translate(-4.48 -1.67)"/><path class="cls-1" d="M98.93,70.75l-3.61-3c-.9,2.44-4.14,4.26-6.76,4.26a5.56,5.56,0,0,1,0-11.12c2.6,0,5.81,1.77,6.74,4.17l3.41-3a11.24,11.24,0,1,0,.22,8.63Z" transform="translate(-4.48 -1.67)"/></g><g id="red-pieces"><path class="cls-1" d="M32.26,73.13a9.71,9.71,0,1,1-.38-12.88l4.83-3.42c-2.86-3-7.4-5.77-11.89-5.77a15.65,15.65,0,0,0,0,31.3,16.42,16.42,0,0,0,11.89-5.09Z" transform="translate(-4.48 -1.67)"/><path class="cls-1" d="M73.68,101.84a9.7,9.7,0,1,1-12.88.38l-3.91-4.79a16.93,16.93,0,0,0-5.28,11.85,15.65,15.65,0,1,0,31.3,0,16.47,16.47,0,0,0-5.25-11.85Z" transform="translate(-4.48 -1.67)"/></g><g id="text"><text class="cls-2" transform="translate(68.46 137.76) rotate(-29.98)">c<tspan class="cls-3" x="6.34" y="0">l</tspan><tspan class="cls-4" x="8.69" y="0">u</tspan><tspan class="cls-5" x="15.62" y="0">l</tspan><tspan class="cls-6" x="18" y="0">a</tspan><tspan class="cls-7" x="24.93" y="0">b.</tspan><tspan class="cls-8" x="34.51" y="0">o</tspan><tspan class="cls-9" x="41.54" y="0">r</tspan><tspan class="cls-10" x="45.51" y="0">g</tspan></text></g><g id="polig"><polygon class="cls-11" points="0.5 36.9 0.5 109.53 62.78 145.85 125.06 109.53 125.06 36.9 62.78 0.58 0.5 36.9"/></g></svg>
